<svg id="Layer_1" data-name="Layer 1" xmlns="http://www.w3.org/2000/svg" viewBox="0 0 335.83 188.07">
  <defs>
    <style>
      .cls-1 {
        fill: #fff;
      }
    </style>
  </defs>
  <title>AOQ - One 2</title>
  <g>
    <path class="cls-1" d="M329.32,162.93A49.58,49.58,0,0,0,299.83,90.8c.11-1.69.17-3.38.17-5.1A79.31,79.31,0,0,0,151.29,47.34,57.37,57.37,0,0,0,64.62,91.21,49.6,49.6,0,0,0,6.44,162.93Z"/>
    <path class="cls-1" d="M326.45,167.41H9.33a49.86,49.86,0,0,0,8.77,9.36H317.7A49.86,49.86,0,0,0,326.45,167.41Z"/>
    <path class="cls-1" d="M24.53,181.25a49.28,49.28,0,0,0,14.56,5.69l-1.39,1.13H286.19a49.35,49.35,0,0,0,25.08-6.81Z"/>
  </g>
</svg>
