<svg id="Layer_1" data-name="Layer 1" xmlns="http://www.w3.org/2000/svg" viewBox="0 0 210.57 188.07">
  <defs>
    <style>
      .cls-1 {
        fill: #c6a559;
      }

      .cls-2 {
        fill: none;
        stroke: #c6a559;
        stroke-linecap: round;
        stroke-miterlimit: 10;
        stroke-width: 4px;
        stroke-dasharray: 2 10;
      }
    </style>
  </defs>
  <title>AOQ - One 2</title>
  <g>
    <path class="cls-1" d="M19,123.85l-1.66,7.83a2,2,0,0,0,3.91.83l1.66-7.83a2,2,0,1,0-3.91-.83Z"/>
    <path class="cls-1" d="M15,133.22a2,2,0,0,0-.28-1.5l-4.63-7.11a2,2,0,1,0-3.35,2.18l4.63,7.11a2,2,0,0,0,3.63-.68Z"/>
    <path class="cls-1" d="M0,136.2a2,2,0,0,0,1.54,2.37l7.83,1.66a2,2,0,0,0,.83-3.91l-7.83-1.66A2,2,0,0,0,0,136.2Z"/>
    <path class="cls-1" d="M2.34,147.5a2,2,0,0,0,2.18,3.35l7.11-4.63a2,2,0,0,0-2.18-3.35Z"/>
    <path class="cls-1" d="M16.3,156,18,148.16a2,2,0,1,0-3.91-.83l-1.66,7.83a2,2,0,0,0,3.91.83Z"/>
    <path class="cls-1" d="M24.5,141.37A2,2,0,0,0,26,143.74l7.83,1.66a2,2,0,0,0,.83-3.91l-7.83-1.66A2,2,0,0,0,24.5,141.37Z"/>
    <path class="cls-1" d="M23.67,133.62A2,2,0,1,0,25.86,137L33,132.34A2,2,0,1,0,30.79,129Z"/>
    <path class="cls-2" d="M22.21,146.87c11.68,14.51,20.66,34.64,20.66,34.64"/>
  </g>
  <g>
    <path class="cls-1" d="M179.37,68.67l4,6.92a2,2,0,1,1-3.46,2l-4-6.92a2,2,0,1,1,3.46-2Z"/>
    <path class="cls-1" d="M186.11,76.32a2,2,0,0,1-.2-1.52l2.18-8.2a2,2,0,1,1,3.87,1l-2.18,8.2a2,2,0,0,1-3.66.49Z"/>
    <path class="cls-1" d="M201.24,74.49a2,2,0,0,1-.73,2.73l-6.92,4a2,2,0,1,1-2-3.46l6.92-4A2,2,0,0,1,201.24,74.49Z"/>
    <path class="cls-1" d="M202.58,85.95a2,2,0,1,1-1,3.87l-8.2-2.18a2,2,0,1,1,1-3.87Z"/>
    <path class="cls-1" d="M192,98.36l-4-6.92a2,2,0,1,1,3.46-2l4,6.92a2,2,0,1,1-3.46,2Z"/>
    <path class="cls-1" d="M179.61,87a2,2,0,0,1-.73,2.73l-6.92,4a2,2,0,0,1-2-3.46l6.92-4A2,2,0,0,1,179.61,87Z"/>
    <path class="cls-1" d="M178,79.4a2,2,0,1,1-1,3.87l-8.2-2.18a2,2,0,1,1,1-3.87Z"/>
    <path class="cls-2" d="M183.49,91.53c-6.57,17.43-11.3,68.86-11.3,68.86"/>
  </g>
  <g>
    <path class="cls-1" d="M57.67,8.18,55,15.71a2,2,0,0,0,3.76,1.36l2.71-7.53a2,2,0,0,0-3.76-1.36Z"/>
    <path class="cls-1" d="M52.4,16.91a2,2,0,0,0-.07-1.53L48.72,7.71a2,2,0,0,0-3.62,1.7l3.61,7.68a2,2,0,0,0,3.69-.17Z"/>
    <path class="cls-1" d="M37.2,17.81a2,2,0,0,0,1.2,2.56l7.53,2.71a2,2,0,1,0,1.36-3.76l-7.53-2.71A2,2,0,0,0,37.2,17.81Z"/>
    <path class="cls-1" d="M37.93,29.33a2,2,0,1,0,1.7,3.62l7.68-3.61a2,2,0,0,0-1.7-3.62Z"/>
    <path class="cls-1" d="M50.59,39.64l2.71-7.53a2,2,0,1,0-3.76-1.36l-2.71,7.53a2,2,0,0,0,3.76,1.36Z"/>
    <path class="cls-1" d="M60.72,26.29a2,2,0,0,0,1.2,2.56l7.53,2.71a2,2,0,1,0,1.36-3.76l-7.53-2.71A2,2,0,0,0,60.72,26.29Z"/>
    <path class="cls-1" d="M61,18.49a2,2,0,0,0,1.7,3.62l7.68-3.61a2,2,0,0,0-1.7-3.62Z"/>
    <path class="cls-2" d="M57.7,31.41c26.65,39.8,49.11,136.73,49.11,136.73"/>
  </g>
</svg>
