<svg id="Layer_1" data-name="Layer 1" xmlns="http://www.w3.org/2000/svg" viewBox="0 0 335.83 259.06">
  <defs>
    <style>
      .cls-1 {
        fill: #c6a559;
      }

      .cls-2 {
        font-size: 31.15px;
        fill: #fff;
        font-family: CeraPRO-Black, Cera PRO;
        letter-spacing: 0.1em;
      }

      .cls-3 {
        letter-spacing: 0.02em;
      }

      .cls-4 {
        letter-spacing: 0.08em;
      }
    </style>
  </defs>
  <title>AOQ - One 2</title>
  <path class="cls-1" d="M325.22,107.48c-22.46,26.1-69.54,39.78-67.2,12.45,49,1.66,89.39-45,59.32-67.61-33.23-25-102.41,36.3-86.67,85-22.2,14.52-20.57-8.86-5.17-36.86,16.67-30.3-4.27-75.44-54-31.37.59-3.07,2-8.25,3.06-11.77a3,3,0,0,0-2.81-3.87l-18.08-.57a3,3,0,0,0-3,2.34c-1.9,8.21-8.67,34.56-17.61,35.93,5.81-55-32.14-61.81-53.81-47.7S52.11,92.59,99,109.5c-22.61,29.91-50.59,24.59-60.75,13.05C29.75,112.89,27,93.81,52.91,76.1a3,3,0,0,0,1.24-3.2L49.93,55a3,3,0,0,0-4.17-2.07c-60.64,27.22-47.07,94.47-3.46,102.32,39.69,7.15,72.81-13,85-40.48,7.1-1.26,14.58-6,14.58-6-7.72,17.1-12.08,26.77-23.83,38.47a3,3,0,0,0,.41,4.64l17.54,12.13a3,3,0,0,0,4.07-.58c15.62-19.26,19.73-33.71,28.71-54,15.67-35.36,41.18-34.19,30.09-13.88-37.4,68.5,8.45,89.13,45.4,59.72,32.68,19.19,76.33-12.18,91.53-33.71a2.23,2.23,0,0,0,.08-2.45l-7-11.43A2.23,2.23,0,0,0,325.22,107.48ZM273.46,80.89c20.42-22.12,45.48-4.22,15.56,13.36-7.9,4.64-24.62,6.67-28.89,6.52C261.09,97.89,268.69,86.05,273.46,80.89ZM109.52,90.2s-9.06.06-18.54-8.76c-8-7.47-5.22-16.71.89-20.36,6.71-4,17.29-1.47,19,13.17A46.13,46.13,0,0,1,109.52,90.2ZM2.91,167.32c71.25-.71,247.11,44.3,318-4.79a2.17,2.17,0,0,1,3.1,2.89c-13.83,23.5-69.31,87.13-263.5,84.31a2.17,2.17,0,0,1-1.64-3.56C66.6,236.9,78.74,209.57,2,171.44A2.17,2.17,0,0,1,2.91,167.32Z"/>
  <path class="cls-1" d="M126.3,8.1l3.83,0,0,3.35,3,0,0,2.66-3,0L130,20.69a1.79,1.79,0,0,0,1.83,2,5.63,5.63,0,0,0,1.08-.07l0,2.31a8.75,8.75,0,0,1-2.65.37c-3.12,0-4.09-2-4.06-4.57L126.3,8.1m35.34,3.72-3.83,0-.14,13.37,3.85,0,.08-8c0-1.6.88-2.66,2.41-2.64a2.36,2.36,0,0,1,2.39,2.69l-.08,8,3.85,0,.09-8.94c0-2.76-1.49-4.84-4.74-4.88a4,4,0,0,0-3.85,2h-.06Zm-5.13-.45c-3.48,0-4.31,1.91-4.58,2.52h-.05l0-2.17-3.45,0-.14,13.37,3.85,0,.07-6.63c0-2.88,2-4,4.25-4Zm-34.68,3.8,2.48-1.64C124,13,122.71,11,118.87,11c-2.86,0-5.26,1.42-5.29,4,0,2.43,1.72,3.6,3.66,4.22l1.66.53c1,.34,1.83.64,1.83,1.44s-.81,1.21-2.2,1.2a3.32,3.32,0,0,1-2.91-1.58L113,22.23c.24.63,1.62,2.87,5.72,2.92,3.13,0,5.8-1.26,5.83-4.19,0-2.44-1.7-3.6-3.75-4.25l-1.49-.48c-.93-.29-1.91-.56-1.9-1.44,0-.65.63-1.06,1.77-1a2.86,2.86,0,0,1,2.64,1.42M96.52,5.3,92.88,19,89.53,5.22l-4.81,0L81,19.23,77.53,5.1l-4.07,0,4.77,19.27,5.1.05L86.95,10.8l3.33,13.66,4.82,0,5.16-19.17Zm12.2,15.29a3,3,0,0,1-2.94,1.67,3.07,3.07,0,0,1-3-3.18l9.45.1V18c0-3.51-2-7.1-6.56-7.15-4.08,0-6.69,3-6.73,7S101.44,25,105.73,25c3.76,0,5.22-2.18,5.57-2.91Zm-3-7a2.77,2.77,0,0,1,2.76,2.87l-5.61-.06c.17-1.5,1-2.83,2.85-2.82m37.36,7.34a3,3,0,0,1-2.94,1.67,3.07,3.07,0,0,1-3-3.18l9.45.1V18.35c0-3.51-2-7.1-6.56-7.15-4.08,0-6.69,3-6.73,7s2.46,7.11,6.74,7.15c3.76,0,5.22-2.18,5.57-2.91Zm-3-7a2.77,2.77,0,0,1,2.76,2.87l-5.61-.06c.17-1.5,1-2.83,2.85-2.82m83.89-4.84,3.83,0,0,3.35,3,0,0,2.66-3,0-.07,6.52a1.79,1.79,0,0,0,1.83,2,5.71,5.71,0,0,0,1.08-.07l0,2.31a8.74,8.74,0,0,1-2.65.37c-3.12,0-4.09-2-4.06-4.57l.13-12.59m-46.18-3,6.55.07c6,.06,9.7,3,9.63,9.71s-3.72,9.57-9.82,9.51l-6.55-.07Zm4,16.07,2.19,0c5,.05,5.77-3.3,5.8-6.36S189,9.44,184,9.39l-2.19,0ZM246.19,6.84l4,0-.2,19.22-4,0Zm5.91,18a1.66,1.66,0,1,1,1.65,1.68,1.66,1.66,0,0,1-1.65-1.68m3,0a1.37,1.37,0,1,0-1.38,1.36,1.36,1.36,0,0,0,1.38-1.36m-1.67.12v.82h-.33l0-1.95h.61c.39,0,.7.16.69.54a.43.43,0,0,1-.37.45h0a.38.38,0,0,1,.3.39l.06.57h-.33l0-.35c0-.35-.15-.47-.4-.47Zm.3-.27a.3.3,0,1,0,0-.59h-.29v.59ZM211,12.33v1.44H211a3.92,3.92,0,0,0-3.64-1.87c-4.09,0-5.62,3.28-5.65,6.69s1.42,6.76,5.51,6.81a3.91,3.91,0,0,0,3.68-1.8h.05l0,1.53a2.82,2.82,0,0,1-2.87,3,3.34,3.34,0,0,1-2.9-1.65c-.35.17-2.6,1.49-2.6,1.49.27.57,1.39,3,5.59,3,4.42,0,6.57-2.76,6.61-6.71l.12-11.86Zm-2.69,10.19c-2.18,0-2.56-2.17-2.54-3.9,0-2,.59-3.87,2.62-3.84s2.57,1.93,2.54,3.9c0,1.73-.49,3.87-2.62,3.84m23.53-8a6,6,0,0,1,5.27-2.32c3.32,0,6.35,1.54,6.31,5.36L243.36,26l-3.74,0V24.66h-.05a4.24,4.24,0,0,1-3.84,1.7A4.17,4.17,0,0,1,231.42,22c0-3.07,2.59-4.48,6.49-4.44l1.7,0v-.3c0-1.45-1.05-2.29-2.78-2.31a3.33,3.33,0,0,0-2.76,1.3Zm3.4,7.26a1.78,1.78,0,0,0,1.93,1.82c1.67,0,2.37-1.36,2.39-2.93v-.81l-1.52,0c-2,0-2.79.81-2.8,1.93M196,12.18l4,0-.14,13.37-4,0ZM198,6a2.15,2.15,0,1,0,2.13,2.17A2.15,2.15,0,0,0,198,6m19.42,6.38,4,0-.14,13.37-4,0Zm2-6.16a2.15,2.15,0,1,0,2.13,2.17,2.15,2.15,0,0,0-2.13-2.17"/>
  <text class="cls-2" transform="translate(80.05 224) rotate(0.69)">A<tspan class="cls-3" x="23.64" y="0">P</tspan><tspan class="cls-4" x="43.17" y="0">A</tspan><tspan x="66.35" y="0">C</tspan></text>
</svg>
