<svg id="Layer_1" data-name="Layer 1" xmlns="http://www.w3.org/2000/svg" viewBox="0 0 335.83 302.6">
  <defs>
    <style>
      .cls-1, .cls-3 {
        fill: #fff;
      }

      .cls-2 {
        fill: #c6a559;
      }

      .cls-3 {
        font-size: 11.78px;
        font-family: CeraPRO-Black, Cera PRO;
        letter-spacing: 0.1em;
      }

      .cls-4 {
        letter-spacing: 0.02em;
      }

      .cls-5 {
        letter-spacing: 0.09em;
      }
    </style>
  </defs>
  <title>AOQ - One 2</title>
  <g>
    <g>
      <path class="cls-1" d="M218.7,111h0l8.47-4.26,2.19-3.69L218,108.8Z"/>
      <polygon class="cls-1" points="225.59 0 13.42 26.69 66.17 187.3 242.44 84.34 225.59 0"/>
      <path class="cls-1" d="M218.93,111.67l.75,2.28,4.67-2.47,2.12-3.57-7.4,3.72Z"/>
      <path class="cls-1" d="M217,105.85l.73,2.21,12.37-6.3,2-3.37-15,7.44Z"/>
      <polygon class="cls-1" points="232.82 97.18 234.31 94.67 216.19 103.33 216.78 105.12 232.82 97.18"/>
      <polygon class="cls-1" points="242.19 49.01 249 86.23 232.7 109.99 251.05 97.45 328.21 43.9 242.19 49.01"/>
      <polygon class="cls-1" points="219.92 114.7 220.82 117.44 223.6 112.75 219.92 114.7"/>
      <polygon class="cls-1" points="70.68 190.11 107.63 302.6 113 300.83 75.68 187.19 70.68 190.11"/>
    </g>
    <path class="cls-2" d="M195.2,47.11c-5.07,12-20.44,22.37-22.76,12.26,17.85-5.08,27-26.55,13.54-31.21C171.13,23,153.31,53.08,164.6,68.78c-6.31,7.8-8.43-.81-6.12-12.68,2.5-12.84-10.26-26.67-23.09-5-.14-1.17-.22-3.21-.26-4.59a1.14,1.14,0,0,0-1.46-1.07l-6.58,1.89a1.14,1.14,0,0,0-.83,1.19c.27,3.18.87,13.45-2.18,15-4.27-20.47-18.72-18.54-24.89-11S95.14,73.34,114,74c-4.68,13.38-15.37,14.7-20.36,11.73-4.18-2.5-7.38-9-.1-18.42A1.15,1.15,0,0,0,93.6,66l-3.59-6a1.14,1.14,0,0,0-1.74-.26C69.57,76.61,82.24,99.26,98.85,97,114,95,123.57,84,124.76,72.64a18.33,18.33,0,0,0,4.56-3.83c-.8,7-1.25,11-4.13,16.61a1.15,1.15,0,0,0,.68,1.62l7.72,2.34a1.15,1.15,0,0,0,1.4-.68c3.4-8.74,3.2-14.42,4.09-22.75,1.55-14.54,10.88-17.07,9.23-8.48-5.54,29,13.35,31.11,23.25,16.25,14,3.13,26.08-13.21,29.06-22.73a.84.84,0,0,0-.26-.89l-3.85-3.3A.84.84,0,0,0,195.2,47.11Zm-21.71-3.59c4.79-10.33,15.89-6.78,7.15,3-2.31,2.58-8.09,5.25-9.65,5.69A37.73,37.73,0,0,1,173.49,43.53Zm-58,22.31s-3.26,1.07-7.69-1c-3.75-1.76-3.81-5.41-2-7.43,2-2.22,6.05-2.53,8.37,2.54A17.45,17.45,0,0,1,115.53,65.84Zm-29.47,40.1c25.57-8.5,94.1-12.63,113.94-38.5a.82.82,0,0,1,1.45.68c-2.26,10.06-14.88,39.39-85.13,60.84a.82.82,0,0,1-1-1.09c1.72-4.24,2.93-15.48-29.12-20.34A.82.82,0,0,1,86.07,105.94Z"/>
    <path class="cls-2" d="M115.1,32.4l1.41-.34.3,1.23,1.11-.27.23,1-1.11.27.58,2.4a.68.68,0,0,0,.85.56,2.13,2.13,0,0,0,.39-.13l.2.85a3.31,3.31,0,0,1-.94.38c-1.15.27-1.69-.37-1.91-1.3L115.1,32.4m13.31-1.88-1.41.34,1.18,4.92,1.42-.34-.71-3a.91.91,0,1,1,1.76-.42l.71,3,1.42-.34L132,31.38A1.67,1.67,0,0,0,129.8,30a1.53,1.53,0,0,0-1.23,1.08h0Zm-1.92.31c-1.28.31-1.41,1.1-1.45,1.35h0l-.19-.8-1.27.3,1.18,4.92,1.42-.34-.58-2.44a1.43,1.43,0,0,1,1.19-1.86ZM114.11,35.4l.76-.83a2.19,2.19,0,0,0-2.23-.44c-1.05.25-1.8,1-1.57,2a1.66,1.66,0,0,0,1.73,1.21l.66,0c.41,0,.73.07.8.36s-.18.52-.7.64a1.26,1.26,0,0,1-1.21-.31l-.82.76a2.18,2.18,0,0,0,2.37.54c1.15-.28,2-1,1.75-2.07a1.67,1.67,0,0,0-1.77-1.21l-.59,0c-.37,0-.75,0-.83-.35s.13-.45.55-.55a1.08,1.08,0,0,1,1.1.28m-10.19-1.3-.08,5.35-2.49-4.73-1.77.42-.08,5.5-2.56-4.87-1.5.36L99,42.77l1.88-.45.08-5.32,2.48,4.7,1.77-.42.13-7.51Zm5.88,4.49a1.14,1.14,0,0,1-.93.88,1.16,1.16,0,0,1-1.38-.89l3.48-.83-.1-.43a2.52,2.52,0,1,0-1.76,3.18,2.17,2.17,0,0,0,1.77-1.58ZM108,36.31a1,1,0,0,1,1.28.8l-2.06.49a1.06,1.06,0,0,1,.79-1.29m14.38-.74a1.14,1.14,0,0,1-.93.88,1.16,1.16,0,0,1-1.38-.89l3.48-.83-.1-.43a2.52,2.52,0,1,0-4.89,1.17,2.5,2.5,0,0,0,3.13,2,2.17,2.17,0,0,0,1.77-1.58Zm-1.75-2.28a1,1,0,0,1,1.28.8l-2.06.49a1.06,1.06,0,0,1,.79-1.29M151,23.79l1.41-.34.3,1.23,1.11-.27.23,1-1.11.27.58,2.4a.68.68,0,0,0,.85.56,2.16,2.16,0,0,0,.39-.13l.2.85a3.31,3.31,0,0,1-.94.38c-1.15.27-1.69-.37-1.91-1.3L151,23.79m-17.21,3.15,2.41-.58c2.2-.53,3.84.22,4.42,2.68s-.48,3.85-2.73,4.39l-2.41.58Zm2.93,5.53.8-.19c1.84-.44,1.81-1.74,1.54-2.87s-.85-2.29-2.67-1.85l-.8.19ZM159,20.91l1.45-.35,1.69,7.07-1.45.35ZM162.79,27a.63.63,0,1,1,.76.46.63.63,0,0,1-.76-.46m1.11-.27a.52.52,0,1,0-.38.62.52.52,0,0,0,.38-.62m-.6.2.07.3-.12,0-.17-.72.22-.05c.14,0,.27,0,.3.14a.16.16,0,0,1-.1.2h0a.14.14,0,0,1,.15.11l.07.2-.12,0,0-.12c0-.12-.1-.16-.19-.14Zm.08-.13a.11.11,0,1,0-.05-.22l-.11,0,.05.22Zm-16.82-.62.13.53h0a1.48,1.48,0,0,0-1.51-.35c-1.51.36-1.76,1.72-1.46,3s1.14,2.35,2.65,2a1.48,1.48,0,0,0,1.19-1h0l.13.56a1.07,1.07,0,0,1-.78,1.35,1.27,1.27,0,0,1-1.22-.34c-.11.1-.82.78-.82.78a2.09,2.09,0,0,0,2.33.6A2.31,2.31,0,0,0,149,30.18l-1-4.36Zm0,4c-.8.19-1.14-.56-1.29-1.2s-.14-1.47.61-1.65,1.12.47,1.29,1.2.18,1.46-.61,1.65m7.9-5.1a2.27,2.27,0,0,1,1.72-1.34c1.22-.29,2.47,0,2.81,1.39l.75,3.12-1.37.33L158.2,28h0a1.6,1.6,0,0,1-1.25,1,1.58,1.58,0,0,1-2-1.21c-.27-1.13.54-1.88,2-2.23l.62-.15,0-.11c-.13-.53-.6-.74-1.23-.59a1.26,1.26,0,0,0-.89.73Zm1.91,2.35a.67.67,0,0,0,.87.49c.61-.15.74-.72.61-1.29l-.07-.3-.56.13c-.74.18-.95.55-.85,1M141,27.49l1.45-.35,1.18,4.92-1.45.35Zm.18-2.45a.81.81,0,1,0,1,.6.81.81,0,0,0-1-.6m7.71.55,1.45-.35,1.18,4.92-1.45.35Zm.18-2.45a.81.81,0,1,0,1,.6.81.81,0,0,0-1-.6"/>
    <text class="cls-3" transform="translate(121.03 117.84) rotate(-21.04)">A<tspan class="cls-4" x="8.94" y="0">P</tspan><tspan class="cls-5" x="16.33" y="0">A</tspan><tspan x="25.09" y="0">C</tspan></text>
  </g>
</svg>
