<svg xmlns="http://www.w3.org/2000/svg" viewBox="0 0 500 176.17">
  <defs>
    <style>
      .cls-1 {
        isolation: isolate;
        /*opacity:.8;*/
      }

      .cls-2 {
        fill: #b5ae99;
        /*opacity:.8;*/
      }

      .cls-3 {
        mix-blend-mode: multiply;
        /*opacity:.8;*/
      }

      .cls-4 {
        fill: none;
        stroke: #fff;
        stroke-linecap: round;
        stroke-linejoin: round;
        stroke-width: 2.85px;
        /*opacity:.8;*/
      }
    </style>
  </defs>
  <title>AOQ - One 2</title>
  <g class="cls-1">
    <g id="Layer_1" data-name="Layer 1">
      <g>
        <path class="cls-2" d="M426.75,73.25V44.81s-8.15-1-12.71,1.68-4.56,7.92-13.2,8.64c0,0,9.12,5.76,20.4-.48a6.84,6.84,0,0,1,3.84-.72"/>
        <path class="cls-2" d="M481.21,60.29V31.86s-4.11,6.79-11.14,4.78-10.8.67-10.8.67a95.2,95.2,0,0,1,9.12,6c6,4.35,10.21.33,10.21.33"/>
        <path class="cls-2" d="M23.9,100V71.54s-4.11,6.79-11.14,4.78S2,77,2,77a95.2,95.2,0,0,1,9.12,6c6,4.35,10.21.33,10.21.33"/>
        <path class="cls-2" d="M224.37,105.27V76.84s-4.11,6.79-11.14,4.78-10.8.67-10.8.67a95.2,95.2,0,0,1,9.12,6c6,4.35,10.21.33,10.21.33"/>
        <path class="cls-2" d="M364.07,85.39V57s-4.11,6.79-11.14,4.78-8.85,4.64-8.85,4.64,1.15-2.29,7.18,2.06,10.21.33,10.21.33"/>
        <path class="cls-2" d="M301.59,96.55V68.12s-8.15-1-12.71,1.68-4.56,7.92-13.2,8.64c0,0,9.12,5.76,20.4-.48a6.84,6.84,0,0,1,3.84-.72"/>
        <path class="cls-2" d="M154.07,108.69V80.26s-8.15-1-12.71,1.68-4.56,7.92-13.2,8.64c0,0,9.12,5.76,20.4-.48a6.84,6.84,0,0,1,3.84-.72"/>
        <g class="cls-3">
          <ellipse class="cls-2" cx="491.15" cy="76.3" rx="1.66" ry="2.03"/>
          <ellipse class="cls-2" cx="459.71" cy="82.46" rx="1.66" ry="2.03"/>
          <ellipse class="cls-2" cx="473.17" cy="78.91" rx="1.66" ry="2.03"/>
          <ellipse class="cls-2" cx="449.29" cy="83.79" rx="1.66" ry="2.03"/>
          <ellipse class="cls-2" cx="489.86" cy="84.54" rx="1.66" ry="2.03"/>
          <ellipse class="cls-2" cx="488.44" cy="91.46" rx="1.66" ry="2.03"/>
          <ellipse class="cls-2" cx="486.38" cy="97.49" rx="1.66" ry="2.03"/>
          <ellipse class="cls-2" cx="482.03" cy="94.29" rx="1.66" ry="2.03"/>
          <ellipse class="cls-2" cx="475.49" cy="100.33" rx="1.66" ry="2.03"/>
          <ellipse class="cls-2" cx="462.65" cy="94.04" rx="1.66" ry="2.03"/>
          <ellipse class="cls-2" cx="453.92" cy="105.72" rx="1.66" ry="2.03"/>
          <ellipse class="cls-2" cx="477.41" cy="85.05" rx="1.66" ry="2.03"/>
          <ellipse class="cls-2" cx="456.11" cy="100.07" rx="1.66" ry="2.03"/>
          <ellipse class="cls-2" cx="454.82" cy="92.37" rx="1.66" ry="2.03"/>
          <ellipse class="cls-2" cx="417.73" cy="101.61" rx="1.66" ry="2.03"/>
          <ellipse class="cls-2" cx="393.6" cy="103.15" rx="1.66" ry="2.03"/>
          <ellipse class="cls-2" cx="377.06" cy="104.69" rx="1.66" ry="2.03"/>
          <ellipse class="cls-2" cx="362.09" cy="108" rx="1.66" ry="2.03"/>
          <ellipse class="cls-2" cx="325.74" cy="110.02" rx="1.66" ry="2.03"/>
          <ellipse class="cls-2" cx="366.83" cy="110.1" rx="1.66" ry="2.03"/>
          <ellipse class="cls-2" cx="378.02" cy="112.75" rx="1.66" ry="2.03"/>
          <ellipse class="cls-2" cx="356.66" cy="111.17" rx="1.66" ry="2.03"/>
          <ellipse class="cls-2" cx="345.03" cy="108.6" rx="1.66" ry="2.03"/>
          <ellipse class="cls-2" cx="338.77" cy="108.6" rx="1.66" ry="2.03"/>
          <ellipse class="cls-2" cx="308.44" cy="115.12" rx="1.66" ry="2.03"/>
          <ellipse class="cls-2" cx="291.22" cy="113.98" rx="1.66" ry="2.03"/>
          <ellipse class="cls-2" cx="324.08" cy="116.45" rx="1.66" ry="2.03"/>
          <ellipse class="cls-2" cx="329.9" cy="115.85" rx="1.66" ry="2.03"/>
          <ellipse class="cls-2" cx="312.68" cy="122.91" rx="1.66" ry="2.03"/>
          <ellipse class="cls-2" cx="303.16" cy="135.14" rx="1.66" ry="2.03"/>
          <ellipse class="cls-2" cx="289.48" cy="137.17" rx="1.66" ry="2.03"/>
          <ellipse class="cls-2" cx="280.09" cy="137.17" rx="1.66" ry="2.03"/>
          <ellipse class="cls-2" cx="267.66" cy="138.05" rx="1.66" ry="2.03"/>
          <ellipse class="cls-2" cx="252.03" cy="141.22" rx="1.66" ry="2.03"/>
          <ellipse class="cls-2" cx="296.92" cy="122.36" rx="1.66" ry="2.03"/>
          <ellipse class="cls-2" cx="273.76" cy="136.03" rx="1.66" ry="2.03"/>
          <ellipse class="cls-2" cx="244.42" cy="120.24" rx="1.66" ry="2.03"/>
          <ellipse class="cls-2" cx="275.06" cy="116.89" rx="1.66" ry="2.03"/>
          <ellipse class="cls-2" cx="302.52" cy="118.12" rx="1.66" ry="2.03"/>
          <ellipse class="cls-2" cx="263.29" cy="118.48" rx="1.66" ry="2.03"/>
          <ellipse class="cls-2" cx="229.54" cy="125.97" rx="1.66" ry="2.03"/>
          <ellipse class="cls-2" cx="223.65" cy="130.4" rx="1.66" ry="2.03"/>
          <ellipse class="cls-2" cx="216.79" cy="131.51" rx="1.66" ry="2.03"/>
          <ellipse class="cls-2" cx="205.59" cy="137.53" rx="1.66" ry="2.03"/>
          <ellipse class="cls-2" cx="286.81" cy="131.98" rx="1.66" ry="2.03"/>
          <ellipse class="cls-2" cx="276.72" cy="122.36" rx="1.66" ry="2.03"/>
          <ellipse class="cls-2" cx="236.86" cy="124.39" rx="1.66" ry="2.03"/>
          <ellipse class="cls-2" cx="258.97" cy="131.01" rx="1.66" ry="2.03"/>
          <ellipse class="cls-2" cx="263.29" cy="135.14" rx="1.66" ry="2.03"/>
          <ellipse class="cls-2" cx="255.8" cy="137.17" rx="1.66" ry="2.03"/>
          <ellipse class="cls-2" cx="388.9" cy="97.49" rx="1.66" ry="2.03"/>
          <ellipse class="cls-2" cx="431.46" cy="100.84" rx="1.66" ry="2.03"/>
          <ellipse class="cls-2" cx="413.11" cy="93.78" rx="1.66" ry="2.03"/>
          <ellipse class="cls-2" cx="403.36" cy="94.42" rx="1.66" ry="2.03"/>
          <ellipse class="cls-2" cx="436.98" cy="96.09" rx="1.66" ry="2.03"/>
          <ellipse class="cls-2" cx="441.86" cy="100.45" rx="1.66" ry="2.03"/>
          <ellipse class="cls-2" cx="436.59" cy="102.01" rx="1.66" ry="2.03"/>
          <ellipse class="cls-2" cx="381.68" cy="106.72" rx="1.66" ry="2.03"/>
          <ellipse class="cls-2" cx="358.32" cy="103.69" rx="1.66" ry="2.03"/>
          <ellipse class="cls-2" cx="443.65" cy="87.25" rx="1.66" ry="2.03"/>
          <ellipse class="cls-2" cx="483.48" cy="88.09" rx="1.3" ry="1.58"/>
          <ellipse class="cls-2" cx="471.03" cy="96.31" rx="1.3" ry="1.58"/>
          <ellipse class="cls-2" cx="433.12" cy="90.33" rx="1.3" ry="1.58"/>
          <ellipse class="cls-2" cx="461.87" cy="100.22" rx="1.3" ry="1.58"/>
          <ellipse class="cls-2" cx="448.78" cy="103.94" rx="1.3" ry="1.58"/>
          <ellipse class="cls-2" cx="429" cy="109.59" rx="1.3" ry="1.58"/>
          <ellipse class="cls-2" cx="408.34" cy="108.43" rx="1.3" ry="1.58"/>
          <ellipse class="cls-2" cx="407.04" cy="115.66" rx="1.3" ry="1.58"/>
          <ellipse class="cls-2" cx="407.04" cy="100.22" rx="1.3" ry="1.58"/>
          <ellipse class="cls-2" cx="396.56" cy="109.53" rx="1.3" ry="1.58"/>
          <ellipse class="cls-2" cx="395.27" cy="115.12" rx="1.3" ry="1.58"/>
          <ellipse class="cls-2" cx="383.34" cy="117.43" rx="1.3" ry="1.58"/>
          <ellipse class="cls-2" cx="345.03" cy="124.5" rx="1.3" ry="1.58"/>
          <ellipse class="cls-2" cx="345.03" cy="129.32" rx="1.3" ry="1.58"/>
          <ellipse class="cls-2" cx="338.95" cy="130.7" rx="1.3" ry="1.58"/>
          <ellipse class="cls-2" cx="337.65" cy="125.16" rx="1.3" ry="1.58"/>
          <ellipse class="cls-2" cx="320.17" cy="127.67" rx="1.3" ry="1.58"/>
          <ellipse class="cls-2" cx="300.86" cy="123.31" rx="1.3" ry="1.58"/>
          <ellipse class="cls-2" cx="268.96" cy="131.37" rx="1.3" ry="1.58"/>
          <ellipse class="cls-2" cx="257.23" cy="141.93" rx="1.3" ry="1.58"/>
          <ellipse class="cls-2" cx="323.72" cy="124.5" rx="1.3" ry="1.58"/>
          <ellipse class="cls-2" cx="328.6" cy="123.85" rx="1.3" ry="1.58"/>
          <ellipse class="cls-2" cx="305.48" cy="127.73" rx="1.3" ry="1.58"/>
          <ellipse class="cls-2" cx="299.56" cy="129.79" rx="1.3" ry="1.58"/>
          <ellipse class="cls-2" cx="270.7" cy="120.34" rx="1.3" ry="1.58"/>
          <ellipse class="cls-2" cx="231.9" cy="120.78" rx="1.3" ry="1.58"/>
          <ellipse class="cls-2" cx="241.82" cy="126.98" rx="1.3" ry="1.58"/>
          <ellipse class="cls-2" cx="275.06" cy="130.9" rx="1.3" ry="1.58"/>
          <ellipse class="cls-2" cx="364.32" cy="116.71" rx="1.3" ry="1.58"/>
          <ellipse class="cls-2" cx="475.52" cy="92.84" rx="1.3" ry="1.58"/>
          <ellipse class="cls-2" cx="442.92" cy="93.23" rx="1.3" ry="1.58"/>
          <ellipse class="cls-2" cx="430.04" cy="95.6" rx="1.3" ry="1.58"/>
          <ellipse class="cls-2" cx="412.59" cy="102.4" rx="1.3" ry="1.58"/>
          <ellipse class="cls-2" cx="371.29" cy="100.8" rx="1.3" ry="1.58"/>
          <ellipse class="cls-2" cx="383.34" cy="111.17" rx="1.3" ry="1.58"/>
          <ellipse class="cls-2" cx="369.79" cy="115.85" rx="1.3" ry="1.58"/>
          <ellipse class="cls-2" cx="390.64" cy="109.32" rx="1.3" ry="1.58"/>
          <ellipse class="cls-2" cx="372.59" cy="107.02" rx="1.3" ry="1.58"/>
          <ellipse class="cls-2" cx="306.78" cy="121.73" rx="1.3" ry="1.58"/>
          <ellipse class="cls-2" cx="316.99" cy="133.56" rx="1.3" ry="1.58"/>
          <ellipse class="cls-2" cx="285.15" cy="125.97" rx="1.3" ry="1.58"/>
          <ellipse class="cls-2" cx="263.94" cy="129.43" rx="1.3" ry="1.58"/>
          <ellipse class="cls-2" cx="233.9" cy="129.79" rx="1.3" ry="1.58"/>
          <ellipse class="cls-2" cx="219.75" cy="126.15" rx="1.3" ry="1.58"/>
          <ellipse class="cls-2" cx="247.38" cy="131.08" rx="1.3" ry="1.58"/>
          <ellipse class="cls-2" cx="231.21" cy="134" rx="1.3" ry="1.58"/>
          <ellipse class="cls-2" cx="222.35" cy="137.17" rx="1.3" ry="1.58"/>
          <ellipse class="cls-2" cx="226.96" cy="134.79" rx="1.3" ry="1.58"/>
          <ellipse class="cls-2" cx="293.96" cy="133.56" rx="1.3" ry="1.58"/>
          <ellipse class="cls-2" cx="385.93" cy="103.41" rx="1.3" ry="1.58"/>
          <ellipse class="cls-2" cx="395.27" cy="97.18" rx="1.3" ry="1.58"/>
          <ellipse class="cls-2" cx="467.05" cy="101.83" rx="1.3" ry="1.58"/>
          <ellipse class="cls-2" cx="485.28" cy="80.48" rx="1.74" ry="2.12"/>
          <ellipse class="cls-2" cx="467.18" cy="90.75" rx="1.74" ry="2.12"/>
          <ellipse class="cls-2" cx="448.96" cy="97.94" rx="1.74" ry="2.12"/>
          <ellipse class="cls-2" cx="426.63" cy="105" rx="1.74" ry="2.12"/>
          <ellipse class="cls-2" cx="412.64" cy="113.72" rx="1.74" ry="2.12"/>
          <ellipse class="cls-2" cx="389.92" cy="116.55" rx="1.74" ry="2.12"/>
          <ellipse class="cls-2" cx="375.39" cy="119.02" rx="1.74" ry="2.12"/>
          <ellipse class="cls-2" cx="360.42" cy="119.6" rx="1.74" ry="2.12"/>
          <ellipse class="cls-2" cx="324.08" cy="131.44" rx="1.74" ry="2.12"/>
          <ellipse class="cls-2" cx="330.34" cy="131.44" rx="1.74" ry="2.12"/>
          <ellipse class="cls-2" cx="369.57" cy="120.83" rx="1.74" ry="2.12"/>
          <ellipse class="cls-2" cx="353.52" cy="127.19" rx="1.74" ry="2.12"/>
          <ellipse class="cls-2" cx="348.84" cy="126.51" rx="1.74" ry="2.12"/>
          <ellipse class="cls-2" cx="319.16" cy="120.24" rx="1.74" ry="2.12"/>
          <ellipse class="cls-2" cx="291.22" cy="120.14" rx="1.74" ry="2.12"/>
          <ellipse class="cls-2" cx="296.92" cy="115.22" rx="1.74" ry="2.12"/>
          <ellipse class="cls-2" cx="282.84" cy="121.14" rx="1.74" ry="2.12"/>
          <ellipse class="cls-2" cx="270.7" cy="125.3" rx="1.74" ry="2.12"/>
          <ellipse class="cls-2" cx="258.97" cy="124.39" rx="1.74" ry="2.12"/>
          <ellipse class="cls-2" cx="238.34" cy="133.12" rx="1.74" ry="2.12"/>
          <ellipse class="cls-2" cx="234.85" cy="137.53" rx="1.74" ry="2.12"/>
          <ellipse class="cls-2" cx="312.68" cy="129.79" rx="1.74" ry="2.12"/>
          <ellipse class="cls-2" cx="309.28" cy="133.56" rx="1.74" ry="2.12"/>
          <ellipse class="cls-2" cx="419.18" cy="110.9" rx="1.74" ry="2.12"/>
          <ellipse class="cls-2" cx="401.09" cy="116.55" rx="1.74" ry="2.12"/>
          <ellipse class="cls-2" cx="380.02" cy="122.95" rx="1.74" ry="2.12"/>
          <ellipse class="cls-2" cx="363.83" cy="125.07" rx="1.74" ry="2.12"/>
          <ellipse class="cls-2" cx="425.47" cy="90.88" rx="1.74" ry="2.12"/>
          <ellipse class="cls-2" cx="495.35" cy="84.17" rx="1" ry="1.22"/>
          <ellipse class="cls-2" cx="492.01" cy="93.02" rx="1" ry="1.22"/>
          <ellipse class="cls-2" cx="461.1" cy="87.84" rx="1" ry="1.22"/>
          <ellipse class="cls-2" cx="465.98" cy="84.05" rx="1" ry="1.22"/>
          <ellipse class="cls-2" cx="455.58" cy="86.8" rx="1" ry="1.22"/>
          <ellipse class="cls-2" cx="479.71" cy="81.35" rx="1" ry="1.22"/>
          <ellipse class="cls-2" cx="472.52" cy="85.97" rx="1" ry="1.22"/>
          <ellipse class="cls-2" cx="449.42" cy="91.23" rx="1" ry="1.22"/>
          <ellipse class="cls-2" cx="434.25" cy="108.3" rx="1" ry="1.22"/>
          <ellipse class="cls-2" cx="420.67" cy="95.27" rx="1" ry="1.22"/>
          <ellipse class="cls-2" cx="414.64" cy="108.88" rx="1" ry="1.22"/>
          <ellipse class="cls-2" cx="367.83" cy="105" rx="1" ry="1.22"/>
          <ellipse class="cls-2" cx="347.84" cy="104.69" rx="1" ry="1.22"/>
          <ellipse class="cls-2" cx="387.23" cy="120.83" rx="1" ry="1.22"/>
          <ellipse class="cls-2" cx="353.52" cy="107.02" rx="1" ry="1.22"/>
          <ellipse class="cls-2" cx="352.52" cy="112.12" rx="1" ry="1.22"/>
          <ellipse class="cls-2" cx="320.17" cy="113.02" rx="1" ry="1.22"/>
          <ellipse class="cls-2" cx="332.74" cy="109.14" rx="1" ry="1.22"/>
          <ellipse class="cls-2" cx="314.69" cy="110.37" rx="1" ry="1.22"/>
          <ellipse class="cls-2" cx="289.48" cy="126.15" rx="1" ry="1.22"/>
          <ellipse class="cls-2" cx="284.58" cy="138.05" rx="1" ry="1.22"/>
          <ellipse class="cls-2" cx="276.36" cy="139.65" rx="1" ry="1.22"/>
          <ellipse class="cls-2" cx="281.09" cy="132.6" rx="1" ry="1.22"/>
          <ellipse class="cls-2" cx="260.64" cy="139.38" rx="1" ry="1.22"/>
          <ellipse class="cls-2" cx="438.26" cy="89.69" rx="1" ry="1.22"/>
          <ellipse class="cls-2" cx="424.14" cy="99.42" rx="1" ry="1.22"/>
          <ellipse class="cls-2" cx="424.78" cy="110.33" rx="1" ry="1.22"/>
          <ellipse class="cls-2" cx="418.75" cy="107.02" rx="1" ry="1.22"/>
          <ellipse class="cls-2" cx="387.23" cy="112.75" rx="1" ry="1.22"/>
          <ellipse class="cls-2" cx="362.09" cy="113.54" rx="1" ry="1.22"/>
          <ellipse class="cls-2" cx="372.29" cy="112.75" rx="1" ry="1.22"/>
          <ellipse class="cls-2" cx="357.01" cy="123.27" rx="1" ry="1.22"/>
          <ellipse class="cls-2" cx="352.52" cy="121.58" rx="1" ry="1.22"/>
          <ellipse class="cls-2" cx="356" cy="118.29" rx="1" ry="1.22"/>
          <ellipse class="cls-2" cx="343.07" cy="119.02" rx="1" ry="1.22"/>
          <ellipse class="cls-2" cx="337.95" cy="118.02" rx="1" ry="1.22"/>
          <ellipse class="cls-2" cx="337.65" cy="115.12" rx="1" ry="1.22"/>
          <ellipse class="cls-2" cx="343.07" cy="112.83" rx="1" ry="1.22"/>
          <ellipse class="cls-2" cx="313.69" cy="116.1" rx="1" ry="1.22"/>
          <ellipse class="cls-2" cx="303.16" cy="112.12" rx="1" ry="1.22"/>
          <ellipse class="cls-2" cx="280.09" cy="115.22" rx="1" ry="1.22"/>
          <ellipse class="cls-2" cx="286.45" cy="118.12" rx="1" ry="1.22"/>
          <ellipse class="cls-2" cx="264.95" cy="125.07" rx="1" ry="1.22"/>
          <ellipse class="cls-2" cx="29.77" cy="137.67" rx="1.66" ry="2.03"/>
          <ellipse class="cls-2" cx="35.87" cy="136.94" rx="1.66" ry="2.03"/>
          <ellipse class="cls-2" cx="5.24" cy="125.3" rx="1.66" ry="2.03"/>
          <ellipse class="cls-2" cx="25.4" cy="136.06" rx="1.66" ry="2.03"/>
          <ellipse class="cls-2" cx="31.07" cy="132.29" rx="1.3" ry="1.58"/>
          <ellipse class="cls-2" cx="46.89" cy="119" rx="1.3" ry="1.58"/>
          <ellipse class="cls-2" cx="56.44" cy="133.06" rx="1.66" ry="2.03"/>
          <ellipse class="cls-2" cx="47.25" cy="140.49" rx="1.66" ry="2.03"/>
          <ellipse class="cls-2" cx="61.15" cy="141.61" rx="1.66" ry="2.03"/>
          <ellipse class="cls-2" cx="51.64" cy="128.4" rx="1.3" ry="1.58"/>
          <ellipse class="cls-2" cx="5.24" cy="135.3" rx="1.3" ry="1.58"/>
          <ellipse class="cls-2" cx="37.17" cy="131.82" rx="1.3" ry="1.58"/>
          <ellipse class="cls-2" cx="39.77" cy="140.08" rx="1.3" ry="1.58"/>
          <ellipse class="cls-2" cx="34.21" cy="117.25" rx="1.3" ry="1.58"/>
          <ellipse class="cls-2" cx="26.06" cy="130.34" rx="1.3" ry="1.58"/>
          <ellipse class="cls-2" cx="13.59" cy="134.17" rx="1.3" ry="1.58"/>
          <ellipse class="cls-2" cx="32.81" cy="126.22" rx="1.74" ry="2.12"/>
          <ellipse class="cls-2" cx="18.34" cy="136.94" rx="1.74" ry="2.12"/>
          <ellipse class="cls-2" cx="8.65" cy="131.68" rx="1.74" ry="2.12"/>
          <ellipse class="cls-2" cx="12.59" cy="128.99" rx="1.74" ry="2.12"/>
          <ellipse class="cls-2" cx="27.06" cy="125.99" rx="1" ry="1.22"/>
          <ellipse class="cls-2" cx="34.21" cy="140.86" rx="1" ry="1.22"/>
          <ellipse class="cls-2" cx="21.16" cy="132.42" rx="1" ry="1.22"/>
          <ellipse class="cls-2" cx="247.38" cy="138.15" rx="1" ry="1.22"/>
          <ellipse class="cls-2" cx="247.68" cy="143.06" rx="1" ry="1.22"/>
          <ellipse class="cls-2" cx="249.39" cy="135.41" rx="1" ry="1.22"/>
          <ellipse class="cls-2" cx="263.94" cy="141.83" rx="1" ry="1.22"/>
          <ellipse class="cls-2" cx="243.56" cy="133.74" rx="1" ry="1.22"/>
          <ellipse class="cls-2" cx="257.23" cy="119.34" rx="1" ry="1.22"/>
          <ellipse class="cls-2" cx="293.96" cy="127.19" rx="1" ry="1.22"/>
          <ellipse class="cls-2" cx="297.93" cy="136.63" rx="1" ry="1.22"/>
          <ellipse class="cls-2" cx="281.09" cy="128.2" rx="1" ry="1.22"/>
          <ellipse class="cls-2" cx="271.26" cy="140.61" rx="1" ry="1.22"/>
          <ellipse class="cls-2" cx="212.39" cy="124.55" rx="1.66" ry="2.03"/>
          <ellipse class="cls-2" cx="218.45" cy="121.21" rx="1.66" ry="2.03"/>
          <ellipse class="cls-2" cx="202.27" cy="134.17" rx="1.66" ry="2.03"/>
          <ellipse class="cls-2" cx="194.23" cy="138.05" rx="1.66" ry="2.03"/>
          <ellipse class="cls-2" cx="192.18" cy="124.55" rx="1.66" ry="2.03"/>
          <ellipse class="cls-2" cx="166.44" cy="131.51" rx="1.66" ry="2.03"/>
          <ellipse class="cls-2" cx="166.44" cy="137.53" rx="1.66" ry="2.03"/>
          <ellipse class="cls-2" cx="174.43" cy="133.21" rx="1.66" ry="2.03"/>
          <ellipse class="cls-2" cx="147.22" cy="138.05" rx="1.66" ry="2.03"/>
          <ellipse class="cls-2" cx="178.75" cy="137.34" rx="1.66" ry="2.03"/>
          <ellipse class="cls-2" cx="184.42" cy="133.57" rx="1.3" ry="1.58"/>
          <ellipse class="cls-2" cx="171.39" cy="138.39" rx="1.3" ry="1.58"/>
          <ellipse class="cls-2" cx="186.16" cy="122.53" rx="1.3" ry="1.58"/>
          <ellipse class="cls-2" cx="168.46" cy="126.04" rx="1.3" ry="1.58"/>
          <ellipse class="cls-2" cx="190.52" cy="133.09" rx="1.3" ry="1.58"/>
          <ellipse class="cls-2" cx="200.61" cy="128.16" rx="1.3" ry="1.58"/>
          <ellipse class="cls-2" cx="179.41" cy="131.62" rx="1.3" ry="1.58"/>
          <ellipse class="cls-2" cx="162.33" cy="127.55" rx="1.3" ry="1.58"/>
          <ellipse class="cls-2" cx="163.63" cy="122.95" rx="1.3" ry="1.58"/>
          <ellipse class="cls-2" cx="209.42" cy="135.75" rx="1.3" ry="1.58"/>
          <ellipse class="cls-2" cx="206.68" cy="122.34" rx="1.74" ry="2.12"/>
          <ellipse class="cls-2" cx="198.3" cy="123.33" rx="1.74" ry="2.12"/>
          <ellipse class="cls-2" cx="186.16" cy="127.49" rx="1.74" ry="2.12"/>
          <ellipse class="cls-2" cx="174.43" cy="126.58" rx="1.74" ry="2.12"/>
          <ellipse class="cls-2" cx="204.94" cy="128.34" rx="1" ry="1.22"/>
          <ellipse class="cls-2" cx="196.56" cy="134.79" rx="1" ry="1.22"/>
          <ellipse class="cls-2" cx="188.91" cy="138.05" rx="1" ry="1.22"/>
          <ellipse class="cls-2" cx="180.41" cy="127.27" rx="1" ry="1.22"/>
          <ellipse class="cls-2" cx="178.75" cy="122.95" rx="1" ry="1.22"/>
          <ellipse class="cls-2" cx="209.42" cy="129.39" rx="1" ry="1.22"/>
          <ellipse class="cls-2" cx="216.79" cy="135.95" rx="1" ry="1.22"/>
          <ellipse class="cls-2" cx="213.04" cy="138.05" rx="1" ry="1.22"/>
          <ellipse class="cls-2" cx="224.65" cy="121.73" rx="1" ry="1.22"/>
          <ellipse class="cls-2" cx="196.56" cy="130.4" rx="1" ry="1.22"/>
          <ellipse class="cls-2" cx="149.79" cy="127.3" rx="1.66" ry="2.03"/>
          <ellipse class="cls-2" cx="143.9" cy="131.73" rx="1.66" ry="2.03"/>
          <ellipse class="cls-2" cx="137.04" cy="132.84" rx="1.66" ry="2.03"/>
          <ellipse class="cls-2" cx="127.85" cy="134.45" rx="1.66" ry="2.03"/>
          <ellipse class="cls-2" cx="157.11" cy="125.72" rx="1.66" ry="2.03"/>
          <ellipse class="cls-2" cx="154.15" cy="131.12" rx="1.3" ry="1.58"/>
          <ellipse class="cls-2" cx="138.7" cy="138.05" rx="1.3" ry="1.58"/>
          <ellipse class="cls-2" cx="140" cy="127.48" rx="1.3" ry="1.58"/>
          <ellipse class="cls-2" cx="144.6" cy="123.33" rx="1.3" ry="1.58"/>
          <ellipse class="cls-2" cx="151.45" cy="135.34" rx="1.3" ry="1.58"/>
          <ellipse class="cls-2" cx="154.96" cy="138.39" rx="1.3" ry="1.58"/>
          <ellipse class="cls-2" cx="158.59" cy="134.45" rx="1.74" ry="2.12"/>
          <ellipse class="cls-2" cx="132.63" cy="125.89" rx="1.66" ry="2.03"/>
          <ellipse class="cls-2" cx="125.19" cy="124.39" rx="1.66" ry="2.03"/>
          <ellipse class="cls-2" cx="122.52" cy="135.5" rx="1.66" ry="2.03"/>
          <ellipse class="cls-2" cx="112.43" cy="125.89" rx="1.66" ry="2.03"/>
          <ellipse class="cls-2" cx="86.69" cy="132.84" rx="1.66" ry="2.03"/>
          <ellipse class="cls-2" cx="91.87" cy="132.82" rx="0.83" ry="1.01"/>
          <ellipse class="cls-2" cx="83.5" cy="141.61" rx="0.83" ry="1.01"/>
          <ellipse class="cls-2" cx="72.1" cy="145.01" rx="0.83" ry="1.01"/>
          <ellipse class="cls-2" cx="78.87" cy="140.24" rx="0.83" ry="1.01"/>
          <ellipse class="cls-2" cx="90" cy="138.05" rx="1.66" ry="2.03"/>
          <ellipse class="cls-2" cx="104.67" cy="134.9" rx="1.3" ry="1.58"/>
          <ellipse class="cls-2" cx="99.51" cy="138.05" rx="1.3" ry="1.58"/>
          <ellipse class="cls-2" cx="95" cy="143.19" rx="1.3" ry="1.58"/>
          <ellipse class="cls-2" cx="75.81" cy="143.53" rx="1.3" ry="1.58"/>
          <ellipse class="cls-2" cx="104" cy="123.33" rx="1.3" ry="1.58"/>
          <ellipse class="cls-2" cx="88.44" cy="126.08" rx="1.3" ry="1.58"/>
          <ellipse class="cls-2" cx="92.4" cy="122.8" rx="1.3" ry="1.58"/>
          <ellipse class="cls-2" cx="110.77" cy="134.43" rx="1.3" ry="1.58"/>
          <ellipse class="cls-2" cx="113.37" cy="130.9" rx="1.3" ry="1.58"/>
          <ellipse class="cls-2" cx="120.86" cy="129.5" rx="1.3" ry="1.58"/>
          <ellipse class="cls-2" cx="118.1" cy="124.39" rx="1.3" ry="1.58"/>
          <ellipse class="cls-2" cx="106.41" cy="128.83" rx="1.74" ry="2.12"/>
          <ellipse class="cls-2" cx="125.19" cy="129.67" rx="1" ry="1.22"/>
          <ellipse class="cls-2" cx="116.8" cy="136.12" rx="1" ry="1.22"/>
          <ellipse class="cls-2" cx="119.56" cy="138.97" rx="1" ry="1.22"/>
          <ellipse class="cls-2" cx="100.81" cy="126.3" rx="1" ry="1.22"/>
          <ellipse class="cls-2" cx="129.67" cy="130.72" rx="1" ry="1.22"/>
          <ellipse class="cls-2" cx="130.97" cy="137.53" rx="1" ry="1.22"/>
          <ellipse class="cls-2" cx="131.98" cy="148.49" rx="1.66" ry="2.03"/>
          <ellipse class="cls-2" cx="134.3" cy="140.86" rx="1.66" ry="2.03"/>
          <ellipse class="cls-2" cx="138.12" cy="148.49" rx="1.66" ry="2.03"/>
          <ellipse class="cls-2" cx="148.66" cy="144.06" rx="1.66" ry="2.03"/>
          <ellipse class="cls-2" cx="127.85" cy="148.49" rx="1.3" ry="1.58"/>
          <ellipse class="cls-2" cx="114.67" cy="143.19" rx="1.3" ry="1.58"/>
          <ellipse class="cls-2" cx="123.05" cy="147.58" rx="1.3" ry="1.58"/>
          <ellipse class="cls-2" cx="131.9" cy="144.41" rx="1.3" ry="1.58"/>
          <ellipse class="cls-2" cx="126.19" cy="140.24" rx="1.3" ry="1.58"/>
          <ellipse class="cls-2" cx="126.19" cy="145.01" rx="1.3" ry="1.58"/>
          <ellipse class="cls-2" cx="115.92" cy="148.47" rx="1.74" ry="2.12"/>
          <ellipse class="cls-2" cx="107.71" cy="147.83" rx="1.74" ry="2.12"/>
          <ellipse class="cls-2" cx="119.4" cy="144.06" rx="1.74" ry="2.12"/>
          <ellipse class="cls-2" cx="85.81" cy="144.41" rx="1.74" ry="2.12"/>
          <ellipse class="cls-2" cx="104" cy="141.82" rx="1.74" ry="2.12"/>
          <ellipse class="cls-2" cx="151.98" cy="147.42" rx="1.66" ry="2.03"/>
          <ellipse class="cls-2" cx="160.02" cy="143.53" rx="1.66" ry="2.03"/>
          <ellipse class="cls-2" cx="184.42" cy="147.83" rx="1.66" ry="2.03"/>
          <ellipse class="cls-2" cx="187.81" cy="144.06" rx="1.66" ry="2.03"/>
          <ellipse class="cls-2" cx="184.86" cy="139.2" rx="1.66" ry="2.03"/>
          <ellipse class="cls-2" cx="179.82" cy="148.38" rx="1.66" ry="2.03"/>
          <ellipse class="cls-2" cx="210.43" cy="141.93" rx="1.66" ry="2.03"/>
          <ellipse class="cls-2" cx="175.5" cy="144.25" rx="1.66" ry="2.03"/>
          <ellipse class="cls-2" cx="169.83" cy="148.02" rx="1.3" ry="1.58"/>
          <ellipse class="cls-2" cx="170.09" cy="142.83" rx="1.3" ry="1.58"/>
          <ellipse class="cls-2" cx="182.86" cy="143.19" rx="1.3" ry="1.58"/>
          <ellipse class="cls-2" cx="163.73" cy="148.49" rx="1.3" ry="1.58"/>
          <ellipse class="cls-2" cx="113.37" cy="138.9" rx="1.3" ry="1.58"/>
          <ellipse class="cls-2" cx="101.82" cy="147.83" rx="1.3" ry="1.58"/>
          <ellipse class="cls-2" cx="174.43" cy="148.49" rx="1.3" ry="1.58"/>
          <ellipse class="cls-2" cx="144.83" cy="145.83" rx="1.3" ry="1.58"/>
          <ellipse class="cls-2" cx="227.88" cy="141.51" rx="1.74" ry="2.12"/>
          <ellipse class="cls-2" cx="147.22" cy="148.38" rx="1" ry="1.22"/>
          <ellipse class="cls-2" cx="157.7" cy="146.8" rx="1" ry="1.22"/>
          <ellipse class="cls-2" cx="154.15" cy="143.53" rx="1" ry="1.22"/>
          <ellipse class="cls-2" cx="165.35" cy="143.53" rx="1" ry="1.22"/>
          <ellipse class="cls-2" cx="161.68" cy="140.86" rx="1" ry="1.22"/>
          <ellipse class="cls-2" cx="142.24" cy="149.16" rx="1" ry="1.22"/>
          <ellipse class="cls-2" cx="137.11" cy="144" rx="1" ry="1.22"/>
          <ellipse class="cls-2" cx="141.21" cy="143.53" rx="1" ry="1.22"/>
          <ellipse class="cls-2" cx="110.77" cy="143.19" rx="1" ry="1.22"/>
          <ellipse class="cls-2" cx="93.4" cy="147.22" rx="1" ry="1.22"/>
          <ellipse class="cls-2" cx="99.51" cy="144.78" rx="1" ry="1.22"/>
          <ellipse class="cls-2" cx="209.16" cy="146.27" rx="1.66" ry="2.03"/>
          <ellipse class="cls-2" cx="219.75" cy="144.78" rx="1.66" ry="2.03"/>
          <ellipse class="cls-2" cx="215.55" cy="143.53" rx="1.3" ry="1.58"/>
          <ellipse class="cls-2" cx="202.8" cy="146.25" rx="1.3" ry="1.58"/>
          <ellipse class="cls-2" cx="205.94" cy="143.53" rx="1.3" ry="1.58"/>
          <ellipse class="cls-2" cx="199.3" cy="143.19" rx="1.3" ry="1.58"/>
          <ellipse class="cls-2" cx="200.04" cy="139.28" rx="1.3" ry="1.58"/>
          <ellipse class="cls-2" cx="195.67" cy="147.13" rx="1.74" ry="2.12"/>
          <ellipse class="cls-2" cx="192.57" cy="143.53" rx="1.74" ry="2.12"/>
          <ellipse class="cls-2" cx="234.7" cy="143.53" rx="1.66" ry="2.03"/>
          <ellipse class="cls-2" cx="241.82" cy="138.05" rx="1.66" ry="2.03"/>
          <ellipse class="cls-2" cx="243.56" cy="143.19" rx="1.3" ry="1.58"/>
          <ellipse class="cls-2" cx="239.34" cy="141.95" rx="1" ry="1.22"/>
          <ellipse class="cls-2" cx="226.96" cy="145.81" rx="1" ry="1.22"/>
          <ellipse class="cls-2" cx="224.32" cy="143.44" rx="1" ry="1.22"/>
          <ellipse class="cls-2" cx="215.13" cy="146.8" rx="1" ry="1.22"/>
          <ellipse class="cls-2" cx="218.88" cy="140.19" rx="1" ry="1.22"/>
          <ellipse class="cls-2" cx="108.17" cy="138.39" rx="1" ry="1.22"/>
          <ellipse class="cls-2" cx="81.18" cy="146" rx="1" ry="1.22"/>
          <ellipse class="cls-2" cx="91.04" cy="143.63" rx="1" ry="1.22"/>
          <ellipse class="cls-2" cx="69.06" cy="135.3" rx="1.66" ry="2.03"/>
          <ellipse class="cls-2" cx="71.06" cy="140.19" rx="1.66" ry="2.03"/>
          <ellipse class="cls-2" cx="49.98" cy="134.82" rx="1.66" ry="2.03"/>
          <ellipse class="cls-2" cx="48.91" cy="123.96" rx="1.66" ry="2.03"/>
          <ellipse class="cls-2" cx="42.26" cy="135.5" rx="1.66" ry="2.03"/>
          <ellipse class="cls-2" cx="39.25" cy="127.52" rx="1.66" ry="2.03"/>
          <ellipse class="cls-2" cx="81.83" cy="123.14" rx="1.66" ry="2.03"/>
          <ellipse class="cls-2" cx="28.55" cy="121.21" rx="1.66" ry="2.03"/>
          <ellipse class="cls-2" cx="22.83" cy="115.22" rx="1.66" ry="2.03"/>
          <ellipse class="cls-2" cx="12.59" cy="123.31" rx="1.3" ry="1.58"/>
          <ellipse class="cls-2" cx="19.34" cy="119.18" rx="1.74" ry="2.12"/>
          <ellipse class="cls-2" cx="7.62" cy="118.27" rx="1.74" ry="2.12"/>
          <ellipse class="cls-2" cx="13.59" cy="118.95" rx="1" ry="1.22"/>
          <ellipse class="cls-2" cx="5.88" cy="111.6" rx="1" ry="1.22"/>
          <ellipse class="cls-2" cx="15.08" cy="114.17" rx="1.66" ry="2.03"/>
          <ellipse class="cls-2" cx="64.09" cy="131.79" rx="1.66" ry="2.03"/>
          <ellipse class="cls-2" cx="74.07" cy="132.15" rx="1.3" ry="1.58"/>
          <ellipse class="cls-2" cx="73.4" cy="120.58" rx="1.3" ry="1.58"/>
          <ellipse class="cls-2" cx="58.11" cy="124.63" rx="1.3" ry="1.58"/>
          <ellipse class="cls-2" cx="80.17" cy="131.68" rx="1.3" ry="1.58"/>
          <ellipse class="cls-2" cx="52.94" cy="138.75" rx="1.3" ry="1.58"/>
          <ellipse class="cls-2" cx="56.44" cy="141.25" rx="1.3" ry="1.58"/>
          <ellipse class="cls-2" cx="58.11" cy="119.18" rx="1.3" ry="1.58"/>
          <ellipse class="cls-2" cx="82.77" cy="128.15" rx="1.3" ry="1.58"/>
          <ellipse class="cls-2" cx="69.06" cy="130.21" rx="1.3" ry="1.58"/>
          <ellipse class="cls-2" cx="75.81" cy="126.08" rx="1.74" ry="2.12"/>
          <ellipse class="cls-2" cx="64.09" cy="125.16" rx="1.74" ry="2.12"/>
          <ellipse class="cls-2" cx="59.41" cy="129.32" rx="1.74" ry="2.12"/>
          <ellipse class="cls-2" cx="52.58" cy="120.58" rx="1.74" ry="2.12"/>
          <ellipse class="cls-2" cx="43.93" cy="129.93" rx="1.66" ry="2.03"/>
          <ellipse class="cls-2" cx="37.95" cy="122.77" rx="1.3" ry="1.58"/>
          <ellipse class="cls-2" cx="43.93" cy="123.3" rx="1.74" ry="2.12"/>
          <ellipse class="cls-2" cx="70.06" cy="125.85" rx="1" ry="1.22"/>
          <ellipse class="cls-2" cx="63.43" cy="120.39" rx="1" ry="1.22"/>
          <ellipse class="cls-2" cx="41.07" cy="118.46" rx="1" ry="1.22"/>
          <ellipse class="cls-2" cx="80.17" cy="135.65" rx="1" ry="1.22"/>
          <ellipse class="cls-2" cx="83.5" cy="138.05" rx="1" ry="1.22"/>
          <ellipse class="cls-2" cx="66.75" cy="143.94" rx="1" ry="1.22"/>
          <ellipse class="cls-2" cx="75.37" cy="137.53" rx="1" ry="1.22"/>
          <ellipse class="cls-2" cx="65.75" cy="138.75" rx="1" ry="1.22"/>
          <ellipse class="cls-2" cx="52.94" cy="143.94" rx="1" ry="1.22"/>
          <ellipse class="cls-2" cx="59.49" cy="136.92" rx="1" ry="1.22"/>
          <ellipse class="cls-2" cx="116.8" cy="131.73" rx="1" ry="1.22"/>
          <ellipse class="cls-2" cx="381.68" cy="100.22" rx="1" ry="1.22"/>
          <ellipse class="cls-2" cx="364.32" cy="103.15" rx="1" ry="1.22"/>
          <path class="cls-2" d="M402.2,104.37a17.74,17.74,0,0,1,3.28-.65,17.74,17.74,0,0,1-3.28-.65,57.24,57.24,0,0,1-.93-8.21,57.24,57.24,0,0,1-.93,8.21,17.74,17.74,0,0,1-3.28.65,17.74,17.74,0,0,1,3.28.65,57.24,57.24,0,0,1,.93,8.21A57.24,57.24,0,0,1,402.2,104.37Z"/>
          <path class="cls-2" d="M334.67,121.43a17.74,17.74,0,0,1,3.28-.65,17.74,17.74,0,0,1-3.28-.65,57.24,57.24,0,0,1-.93-8.21,57.24,57.24,0,0,1-.93,8.21,17.74,17.74,0,0,1-3.28.65,17.74,17.74,0,0,1,3.28.65,57.24,57.24,0,0,1,.93,8.21A57.24,57.24,0,0,1,334.67,121.43Z"/>
          <path class="cls-2" d="M252.52,126a17.74,17.74,0,0,1,3.28-.65,17.74,17.74,0,0,1-3.28-.65,57.24,57.24,0,0,1-.93-8.21,57.24,57.24,0,0,1-.93,8.21,17.74,17.74,0,0,1-3.28.65,17.74,17.74,0,0,1,3.28.65,57.24,57.24,0,0,1,.93,8.21A57.24,57.24,0,0,1,252.52,126Z"/>
          <path class="cls-2" d="M97.53,130.69a17.74,17.74,0,0,1,3.28-.65,17.74,17.74,0,0,1-3.28-.65,57.24,57.24,0,0,1-.93-8.21,57.24,57.24,0,0,1-.93,8.21,17.74,17.74,0,0,1-3.28.65,17.74,17.74,0,0,1,3.28.65,57.24,57.24,0,0,1,.93,8.21A57.24,57.24,0,0,1,97.53,130.69Z"/>
          <path class="cls-2" d="M21,127.2a29.13,29.13,0,0,0,3.28-.78,29.13,29.13,0,0,0-3.28-.78,8.64,8.64,0,0,1-.93-2.82,8.64,8.64,0,0,1-.93,2.82,29.13,29.13,0,0,0-3.28.78,29.13,29.13,0,0,0,3.28.78,8.64,8.64,0,0,1,.93,2.82A8.64,8.64,0,0,1,21,127.2Z"/>
          <path class="cls-2" d="M349.77,116.11a25.14,25.14,0,0,1,3.28-.45,25.14,25.14,0,0,1-3.28-.45,27.46,27.46,0,0,1-.93-5.63,27.46,27.46,0,0,1-.93,5.63,25.14,25.14,0,0,1-3.28.45,25.14,25.14,0,0,1,3.28.45,27.46,27.46,0,0,1,.93,5.63A27.46,27.46,0,0,1,349.77,116.11Z"/>
        </g>
        <g>
          <path class="cls-4" d="M2,95.72q12.91,2.61,26,4.65"/>
          <path class="cls-4" d="M2,105.6q12.91,2.61,26,4.65"/>
          <g>
            <polygon class="cls-4" points="43.95 4.38 147.9 13.57 147.9 70.85 43.96 61.65 43.95 4.38"/>
            <path class="cls-4" d="M2,139.51c222.24,45,498-41,498-41"/>
            <path class="cls-4" d="M2,158.12c222.24,45,498-41,498-41"/>
            <path class="cls-4" d="M500,54.73S265.35,127.2,54.41,103.92C33,101.56,28,100.37,28,100.37"/>
            <path class="cls-4" d="M500,64.6S265.28,137.72,54.41,113.8c-23-2.61-26.41-3.55-26.41-3.55"/>
            <line class="cls-4" x1="103.12" y1="66.7" x2="103.12" y2="108.12"/>
            <line class="cls-4" x1="85.69" y1="65.17" x2="85.69" y2="106.59"/>
            <line class="cls-4" x1="80.75" y1="64.84" x2="80.75" y2="106.26"/>
            <line class="cls-4" x1="418.75" y1="119.48" x2="418.75" y2="138.29"/>
            <line class="cls-4" x1="356.11" y1="132.56" x2="356.11" y2="151.37"/>
            <line class="cls-4" x1="479.68" y1="104.24" x2="479.68" y2="123.06"/>
          </g>
        </g>
      </g>
    </g>
  </g>
</svg>
